# xmcd
#
# Track frame offsets: 
#        300
#        23899
#        42632
#        64899
#        86853
#        101056
#        124293
#        144737
#        162310
#        183485
#
# Disc length: 2743 seconds
#
# Revision: 0
# Processed by: cddbd v1.5.2PL0 Copyright (c) Steve Scherf et al.
# Submitted via: ExactAudioCopy v1.0b1
#
DISCID=990ab30a
DTITLE=Joanne Shaw Taylor - Diamonds In The Dirt
DYEAR=2010
DGENRE=Blues
TTITLE0=Can't Keep Living Like This
TTITLE1=Dead And Gone
TTITLE2=Same As It Never Was
TTITLE3=Jump That Train
TTITLE4=Who Do You Love?
TTITLE5=Diamonds In The Dirt
TTITLE6=Let It Burn
TTITLE7=World On Fire
TTITLE8=Lord Have Mercy
TTITLE9=The World And It's Way
EXTD=
EXTT0=
EXTT1=
EXTT2=
EXTT3=
EXTT4=
EXTT5=
EXTT6=
EXTT7=
EXTT8=
EXTT9=
PLAYORDER=
